<svg xmlns="http://www.w3.org/2000/svg" height="34" width="34" fill="#aaa"><path d="M16.9 0C7.55.06 0 7.65 0 17c0 9.38 7.62 17 17 17 9.38 0 17-7.62 17-17 0-9.38-7.62-17-17-17h-.1zm-3.27 3.05h.1c.38.03.3.25.26.55-.1.3-3.3 5.44-3.5 6.08-.2.65.2 4.3.5 4.72.2.32 5 2.62 5.1 2.3.1-.3-3.1-2.8-3-3.88 0-1 .7-2.88 1.5-4 .7-1.13 1.7-2.12 2.4-2.2.7.1 1.6 1.07 2.4 2.2.8 1.12 1.4 3 1.4 4 0 1.1-3.1 3.58-3 3.9.1.3 4.9-2 5.1-2.32.3-.4.7-4.07.5-4.72-.3-.64-3.5-5.78-3.5-6.08-.1-.3-.1-.52.2-.54.3-.02 1.3.26 2 .86.73.65 3 3.8 3.22 5.15.3 1.33-.6 5.6-1.45 6.38-.84.78-5.8 1.93-5.8 2.28.03.33 4.7-.2 5.64-.47.9-.24 3.13-1.74 3.5-2.33.3-.46 1.3-5.74 1.4-5.96.07-.1.14-.2.2-.2.1 0 .2.07.3.3.2.44.84 1.55.86 2.96.04 1.42-.66 3.7-1.03 4.18-.4.5-4 2.2-4.67 2.4-.7.2-5.9.1-5.92.4 0 .4 3.66.8 4.7 1.1.9.3 3.4 1.9 3.78 2.5.4.8.83 3.9.4 4.7-.44.8-1.1 1.1-1.35.5-.2-.5-.7-4.1-.9-4.4-.2-.3-1.85-1.6-2.64-2-.8-.3-4.16-1.5-4.3-1.2-.07.2 3.23 2.3 3.7 3 .5.8.96 2.8.9 3.7-.04 1-1.7 3.7-2.36 4-.7.4-1.2.3-1.1-.5.1-.7 1.3-3.1 1.4-3.7.04-.5 0-2.3-.28-2.9-.26-.5-2-2.5-2.33-2.4-.24.1.14 2.1-.34 2.1-.5 0-.46-2.1-.95-2.1-.44 0-.45 2.2-.93 2.2-.44 0-.1-2-.3-2.1-.32-.1-2.1 1.9-2.32 2.5-.2.56-.3 2.4-.2 2.9.1.57 1.3 3 1.4 3.7.1.8-.4.87-1.1.5-.67-.35-2.3-3.06-2.4-4-.07-.9.37-2.9.87-3.7.5-.8 3.8-2.8 3.7-3-.1-.3-3.5.86-4.3 1.23-.8.37-2.4 1.7-2.6 2-.2.3-.72 3.86-.94 4.43-.2.58-.9.26-1.3-.5-.44-.73 0-3.9.42-4.64.4-.6 2.9-2.22 3.8-2.5 1.04-.3 4.7-.74 4.68-1.1 0-.35-5.27-.2-5.94-.4-.7-.15-4.3-1.8-4.7-2.3-.4-.42-1.06-2.7-1.03-4.13 0-1.4.7-2.53.9-2.97.1-.23.14-.3.2-.3.1 0 .2.1.2.2.2.2 1.2 5.5 1.4 5.96.4.6 2.7 2.1 3.5 2.33.9.22 5.6.8 5.7.43.03-.4-4.96-1.5-5.8-2.3-.8-.9-1.7-5.16-1.4-6.5.27-1.32 2.5-4.5 3.26-5.13.7-.57 1.6-.85 2-.87z"/></svg>