<svg xmlns="http://www.w3.org/2000/svg" width="34" height="34" fill="#aaa"><path d="M16.9 0C7.55.06 0 7.65 0 17c0 9.38 7.62 17 17 17 9.38 0 17-7.62 17-17 0-9.38-7.62-17-17-17h-.1zm-6.3 5.68c1.33 0 1.48 1.17 1.8 1.86.35.72.48 1.2.86 1.2.3 0 1.6-1.28 2.17-1.3.5 0 1.47.97 2.02 1.55.7.7.5 1.03.13.9-.37-.17-1.68-1.15-2.2-1.1-.42 0-2.17 2.2-2.85 2-.82-.3-1.08-2.87-1.86-3.16-.78-.3-1.92 1.32-2.7 1.3-.76-.02-1.07-1.37-.8-1.86.52-.88 1.63-1.26 3.2-1.4h.17l.05-.03zm14.3.2h.04c.8-.02 1.64.26 2.38.97 2.62 2.5.05 7.16-1.6 9-.9 1.03-2.34 1.48-2.4 2.25-.04.77 1.1.98 1.34 1.9.2.8-1.08 2.55-1.33 4.3-.18 1.23 1.02 5.4.25 5.72-.76.3-2.5-4.66-3.42-4.45-.92.2-.16 5.68-.87 5.93-.76.26-1.7-2.04-2.2-6.1-.55-4.03.6-6.28 1.5-7 .7-.53 2.14-.04 2.55-1.12.3-.8-1.78-1.22-1.03-3.6.06.2 1.45 2.02 2.87 2.12 1.43.1 2.6-1.88 2.66-3.33.05-1.58-.66-3.73-4.14-4.45.43-1.1 1.83-2.12 3.35-2.15zM19 11.64h.02c.46-.02.56.44-.06.7-1.08.42-3.75 1.38-3.9 1.56-.37.5-.68 5.02-1.52 5.38-1.27.53-4.04-2.6-4.6-2.36-.57.26-.87 5-2.05 6.25-.76.77-2.4 1.22-3.1-.24-.7-1.5.55-2.35 1.3-2.6 1.4-.44 1.37-5.88 2.65-6.27 1.37-.43 4.5 3.23 5 2.9.55-.3.93-3.77 1.4-4.16.44-.35 4.2-1.04 4.74-1.14h.1zm1.13 2z"/></svg>