<?xml version="1.0" encoding="UTF-8" standalone="no"?><!DOCTYPE svg PUBLIC "-//W3C//DTD SVG 1.1//EN" "http://www.w3.org/Graphics/SVG/1.1/DTD/svg11.dtd"><svg width="100%" height="100%" viewBox="0 0 145 50" version="1.1" xmlns="http://www.w3.org/2000/svg" xmlns:xlink="http://www.w3.org/1999/xlink" xml:space="preserve" style="fill-rule:evenodd;clip-rule:evenodd;stroke-linecap:round;stroke-linejoin:round;stroke-miterlimit:1.5;"><path d="M131.975,0.534c6.665,0 12.077,5.411 12.077,12.076l0,24.153c0,6.666 -5.412,12.077 -12.077,12.077l-119.365,0c-6.665,0 -12.076,-5.411 -12.076,-12.077l0,-24.153c0,-6.665 5.411,-12.076 12.076,-12.076l119.365,0Zm-77.636,12.079l-3.142,0l0,16.358c0,1.36 -0.108,2.351 -0.324,2.972c-0.216,0.621 -0.61,1.112 -1.182,1.474c-0.572,0.361 -1.253,0.542 -2.041,0.542c-1.069,0 -1.906,-0.334 -2.51,-1.004c-0.605,-0.669 -0.945,-1.911 -1.021,-3.725l-2.834,0.389c-0.043,2.364 0.488,4.146 1.595,5.344c1.107,1.199 2.702,1.798 4.786,1.798c1.404,0 2.627,-0.286 3.669,-0.858c1.042,-0.572 1.803,-1.404 2.283,-2.494c0.481,-1.091 0.721,-2.63 0.721,-4.616l0,-16.18Zm75.135,0l3.142,0l0,13.718c0,2.386 -0.27,4.281 -0.81,5.685c-0.54,1.403 -1.514,2.545 -2.923,3.425c-1.409,0.88 -3.258,1.32 -5.548,1.32c-2.224,0 -4.043,-0.383 -5.458,-1.15c-1.414,-0.766 -2.424,-1.876 -3.028,-3.328c-0.605,-1.452 -0.907,-3.436 -0.907,-5.952l0,-13.718l3.142,0l0,13.702c0,2.062 0.191,3.582 0.575,4.559c0.383,0.977 1.042,1.73 1.976,2.259c0.934,0.529 2.075,0.794 3.425,0.794c2.311,0 3.957,-0.524 4.94,-1.571c0.983,-1.048 1.474,-3.061 1.474,-6.041l0,-13.702Zm-97.875,23.743l-10.398,-14.123l9.961,-9.62l-4.259,0l-11.791,11.774l0,-11.774l-3.142,0l0,23.743l3.142,0l0,-8.227l3.887,-3.79l8.454,12.017l4.146,0Zm6.301,0l0,-23.743l-3.142,0l0,23.743l3.142,0Zm40.199,0l-10.398,-14.123l9.961,-9.62l-4.26,0l-11.791,11.774l0,-11.774l-3.142,0l0,23.743l3.142,0l0,-8.227l3.887,-3.79l8.455,12.017l4.146,0Zm15.03,-23.743l-3.223,0l0,23.743l3.013,0l0,-18.658l12.471,18.658l3.223,0l0,-23.743l-3.013,0l0,18.641l-12.471,-18.641Z" style="fill:#d6d6d6;stroke:#000;stroke-width:1.07px;"/></svg>