<svg xmlns="http://www.w3.org/2000/svg" width="1000" height="1000" preserveAspectRatio="xMidYMid meet"><title>PRO-FLOW logo</title><rect fill="none" height="402" width="582" y="-1" x="-1"/><title>ellipse</title><ellipse stroke="#ffffff" transform="rotate(-40 470,512) " ry="291" rx="417" cy="513" cx="471" stroke-opacity="0" stroke-width="2" fill="#00ffff"/><g fill="#000000" transform="matrix(0.5374,0,0,-0.697,47.7,1182.6) "><path stroke="null" d="m713 1315l0-65 -100 0 -100 0 0-75 0-75 100 0 100 0 0-115 0-115 -150 0 -151 0 3-72 3-73 148-3 147-3 0-84 0-85 80 0 79 0 3 86 3 87 53 13c173 44 270 184 216 312 -30 74-117 141-216 166l-53 13 -3 77 -3 76 -79 0 -80 0 0-65zm230-265c100-51 87-115-32-165l-38-15 0 100c0 113 2 115 70 80z"/></g></svg>