<svg xmlns="http://www.w3.org/2000/svg" height="34" width="34" fill="#aaa"><path d="M16.9 0C7.55.06 0 7.65 0 17c0 9.38 7.62 17 17 17 9.38 0 17-7.62 17-17 0-9.38-7.62-17-17-17h-.1zm-2.25 6.04h.02c1-.03 1.8 1.23 1.04 2.54-.5.97-1.4.55-2.4 2.8-.8 1.9.2 3 .6 3.57.5.55 1.7 1.44 1.7 2.73 0 1.28-1 1.6-1.9 1.6-.9.04-2.3-.74-3-1.93-.7-1.1.4-4.35 1.1-6.54.6-1.8 1.2-3.2 2-4.1.4-.4.7-.6 1.1-.6zm4.6 0h.02c.38 0 .8.16 1.15.6.78.95 1.36 2.3 1.94 4.17.68 2.2 1.8 5.5 1.1 6.6-.77 1.2-2.1 2-3.07 2-1 0-2-.3-2-1.6s1.2-2.2 1.7-2.7c.4-.5 1.4-1.6.5-3.5-1-2.3-1.9-1.8-2.4-2.8-.8-1.2 0-2.5.9-2.5zM6.3 13.14h.04c.46 0 .97.44 1 1.44.02 1-.3 1.65-.58 1.65-.42 0-1-1.18-1.17-1.94-.2-.8.3-1.2.7-1.2zm21.3 0h.06c.38 0 .9.43.75 1.15-.1.7-.7 1.9-1.1 1.9-.3 0-.6-.7-.6-1.7.1-1 .5-1.4 1-1.5zM4.64 14.6c.24 0 .5.2.62.5.17.4.23 1.3-.1 1.4-.23.07-.44-.05-.62-.25.1.32.18.7.06.82-.2.18-.5.02-.7-.16.13.2.23.5.12.8-.23.3-.7.1-.9-.1-.2-.2-.43-.5-.1-.9.16-.1.37-.1.54 0-.16-.2-.33-.6 0-.9.25-.2.44-.1.6 0-.1-.3-.08-.7.3-.9h.16zm24.67 0h.1c.1 0 .1.02.2.06.4.2.4.62.3.93.2-.2.4-.3.6 0 .3.2.2.7 0 .9.2-.1.4-.2.5 0 .4.4.1.7-.1.9-.2.2-.6.3-.9.1-.1-.3 0-.6.1-.8-.2.2-.4.3-.6.1-.1-.1 0-.5.1-.8-.1.2-.4.3-.6.2-.3-.1-.3-1-.1-1.4.2-.3.4-.5.6-.5zM6.6 16.9h.03c.6-.03 1.08.3 1.43.96.53 1-1.35 3.03-1.57 4.2-.3 1.24.5 1.96.9 2.52.5.55 1.5.6 2.2.73.6.2 1 .9 1 1.3s0 1.4-1.2 1.5c-1.2.1-2.8-2.3-3.9-4 0 0-1.36-2.1-1.68-3.4-.35-1.3.15-2.4 1.24-3.1.43-.3.84-.4 1.22-.4zm20.62 0h.06c.4-.02.86.13 1.34.46 1.1.72 1.6 1.8 1.26 3.15-.32 1.4-1.67 3.5-1.7 3.5-1.08 1.7-2.67 4-3.83 4-1.16 0-1.16-1.1-1.13-1.4.02-.3.4-1.1 1.08-1.2.68-.1 1.74-.2 2.22-.7.48-.5 1.23-1.3 1-2.5-.23-1.1-2.1-3.2-1.58-4.2.32-.6.76-.9 1.28-.9zm-4.14 1.9h.05c.28.02.64.3.8.67.2.47.16.86-.15 1.1-.22.16-.4.1-.55 0 .1.42.04.85-.32 1.08-.3.15-.5.05-.6-.14 0 .4 0 .8-.4.9-.7.3-.9-.6-.9-1-.1-.4 0-1.3.4-1.5.2-.1.5.2.7.4 0-.3.1-.7.3-.8.2-.1.5 0 .7.3-.04-.3-.02-.7.15-.8h.16zm-12.24 0h.04c.06 0 .13.02.18.05.17.1.2.5.15.83.3-.22.5-.35.7-.23.2.12.3.47.3.82.2-.26.4-.47.7-.4.4.15.5 1.08.4 1.5-.1.4-.2 1.33-.9 1-.3-.12-.4-.5-.4-.86-.1.2-.3.3-.6.2-.32-.2-.4-.6-.3-1.1-.12.1-.3.2-.53 0-.3-.2-.33-.6-.13-1.1.13-.3.5-.6.74-.6zm3.5 1.05h.02c.47 0 1.22 1.5 1.23 2.16 0 .7-.2 1.5-1 1.5-.7.1-1-.5-1.1-1.1-.1-.6.3-2.3.7-2.4zm5.27 0h.1c.5 0 .8 1.78.8 2.4 0 .63-.4 1.26-1 1.17-.7 0-.9-.77-.9-1.4.1-.64.8-2.1 1.2-2.17z"/></svg>