<svg xmlns="http://www.w3.org/2000/svg" height="34" width="34" fill="#aaa"><path d="M16.9 0C7.55.06 0 7.65 0 17c0 9.38 7.62 17 17 17 9.38 0 17-7.62 17-17 0-9.4-7.62-17-17-17h-.1zm2.54 3.17h.02c.47 0 .73.42.78 1.04.07 1.1.2 5.5.2 5.5l6.68-.9c1.84-.2 2.16 1.6 1.5 2.3-.5.6-4.35 5.8-4.35 5.8s4.43 2.3 5.26 2.7c.83.4.9 1.5.15 2-.53.4-4.72 2.7-4.72 2.7s.47 3.7.54 4.5c.07.8-.26 1.1-.9.9-.65-.2-3.57-1.3-4.07-1.4-.5-.1-.22-.9.25-.8.46.1 3.08.4 3.17.4 0 0-.65-3.7-.54-4.1.2-.4 3.8-2.74 3.8-2.74s-4.7-3.3-4.8-3.8c0-.5 3.6-5.85 3.6-5.85s-6.3.2-6.6-.05c-.3-.24-.9-4.8-.9-4.8l-2.9 2c-.6.4-1.1.94-2 .2C12.6 8 11 6.6 11 6.6s-.44 2.6-.58 3.6c-.1.6-1 .8-1-.5V4.9c0-.56.47-1.4 1.57-.5 1.1.9 3.4 3.13 3.4 3.13l3.9-3.7c.47-.44.87-.64 1.17-.66zm-5.76 7.42h.02c.68-.1 1.25.1 1.6.5.86.7 1.5 1.9-.1 3.6-.73-.7-1.53-1.2-2.32-1.8-.7-.5-1.42-.8-2.2-1.1.02 0 .04-.1.05-.1.97-.98 2.03-1.3 2.93-1.38h.02zm-5.22 2.2h.07c1.5 0 3 .7 4.3 1.6 2.1 1.5 4.1 3.5 3.23 4.7-.86 1.2-3.9.1-5.22-.7-1.34-.8-2.3-2.1-2.7-2.3-.4-.2-.9.8-.87 1.4.04.6 1.7 2.1 3.78 2.7-.07 2.4 2.13 3.6 4.1 3-1.4 2.6.12 4.1 1.77 4.15-1.62 2.2-4.86 1.5-5.83.96-1-.55-2.6-2.4-1.7-4.97-.3.1-3.8.65-5.3-1.6s-.6-6.1 1.5-8.06c.9-.8 1.8-1.18 2.8-1.2zm9.75 1.6h.1c.8 0 1.4.3 1.9 1 1.4 1.7-.3 3.8-1.9 5-1.6 1.2-3.8 2.6-5.2 1-.3-.4-.5-.7-.5-1.1 1.3.4 2.8.6 4 0 1.2-.7 1.5-2.5.7-3.6-.3-.6-.7-1.1-1.2-1.57.9-.6 1.7-.96 2.38-1zm2.3 6.3h.1c.7 0 1.3.3 1.6.9.6.8.3 2.1-1.1 3.3-1.4 1.2-3.5 1.9-4.4.3-.8-1.4 1.8-3.7 3-4.4.37-.2.7-.3 1-.3z"/></svg>